# xmcd
#
# Track frame offsets:
#	150
#	28865
#	49757
#	80437
#	103817
#	128677
#	141662
#	166200
#	188815
#	207705
#	225732
#
# Disc length: 3269 seconds
#
# Revision: 0
# Processed by: cddbd v1.5.2PL0 Copyright (c) Steve Scherf et al.
# Submitted via: EZCDAudioConverter 1.3.4.1
#
DISCID=9f0cc30b
DTITLE=Sade - Promise
DYEAR=1985
DGENRE=
TTITLE0=Is It A Crime
TTITLE1=The Sweetest Taboo
TTITLE2=War Of The Hearts
TTITLE3=You're Not The Man
TTITLE4=Jezebel
TTITLE5=Mr. Wrong
TTITLE6=Punch Drunk
TTITLE7=Never As Good As The First Time
TTITLE8=Fear
TTITLE9=Tar Baby
TTITLE10=Maureen
EXTD=
EXTT0=
EXTT1=
EXTT2=
EXTT3=
EXTT4=
EXTT5=
EXTT6=
EXTT7=
EXTT8=
EXTT9=
EXTT10=
PLAYORDER=
